<?xml version="1.0" encoding="UTF-8" standalone="no"?>
<!DOCTYPE svg PUBLIC "-//W3C//DTD SVG 1.1//EN" "http://www.w3.org/Graphics/SVG/1.1/DTD/svg11.dtd">
<svg width="100%" height="100%" viewBox="0 0 18 20" version="1.1" xmlns="http://www.w3.org/2000/svg" xmlns:xlink="http://www.w3.org/1999/xlink" xml:space="preserve" xmlns:serif="http://www.serif.com/" style="fill-rule:evenodd;clip-rule:evenodd;">
    <g id="g1876" transform="matrix(0.311166,0,0,0.311166,-5.24148,-1.80773)">
        <path id="path1947" d="M39.709,63.679C39.317,65.771 41.5,70.115 45.891,70.257C51.199,70.429 54.59,66.368 53.01,59.741L45.087,23.172C44.143,18.818 44.851,16.457 45.355,15.05C46.699,11.296 50.056,9.747 50.873,10.949C51.34,11.635 52.468,14.844 49.256,20.591C46.751,25.073 35.097,30.95 34.242,41.468C33.501,50.614 43.076,57.369 51.339,54.714C56.826,52.951 59.654,44.624 56.258,40.329C47.296,28.994 32.924,46.341 46.847,51.094C45.333,49.902 44.301,48.98 44.109,47.853C42.238,36.877 58.741,39.775 54.294,50.187C52.466,54.469 45.08,55.297 40.874,51.477C37.351,48.278 35.787,42.113 39.708,37.688C45.019,31.694 51.289,26.314 52.954,18.109C54.923,8.406 48.494,0.842 44.429,10.386C43.065,13.588 42.557,16.803 43.863,22.964L51.781,60.311C52.347,62.985 51.968,66.664 49.472,68.355C48.236,69.193 43.862,69.77 42.792,67.77" style="fill-rule:nonzero;stroke:black;stroke-width:0.1px;"/>
        <g id="path4608" transform="matrix(-1.08512,-0.0203685,0.0203685,-1.08512,90.6887,135.057)">
            <path d="M48.249,64.584C48.249,66.504 46.696,68.083 44.809,68.083C42.923,68.083 41.37,66.504 41.37,64.584C41.37,62.665 42.923,61.085 44.809,61.085C46.696,61.085 48.249,62.665 48.249,64.584Z" style="fill-rule:nonzero;stroke:black;stroke-width:0.09px;"/>
        </g>
    </g>
</svg>
